<?xml version="1.0" encoding="UTF-8"?><svg width="24px" height="24px" stroke-width="1.5" viewBox="0 0 24 24" fill="none" xmlns="http://www.w3.org/2000/svg" color="#323232"><path d="M6 18.01l.01-.011M6 6.01l.01-.011" stroke="#323232" stroke-width="1.5" stroke-linecap="round" stroke-linejoin="round"></path><path d="M2 9.4V2.6a.6.6 0 01.6-.6h18.8a.6.6 0 01.6.6v6.8a.6.6 0 01-.6.6H2.6a.6.6 0 01-.6-.6zM2 21.4v-6.8a.6.6 0 01.6-.6h18.8a.6.6 0 01.6.6v6.8a.6.6 0 01-.6.6H2.6a.6.6 0 01-.6-.6z" stroke="#323232" stroke-width="1.5"></path></svg>